<svg width="24" height="18" viewBox="0 0 24 18" fill="none" xmlns="http://www.w3.org/2000/svg">
<g clip-path="url(#clip0)">
<path d="M0 0H24V18H0V0Z" fill="#41479B"/>
<path d="M24 15.6563L15.125 9.00002L24 2.34375V0H20.875L12 6.65627L3.125 0H0V2.34375L8.87501 9.00002L0 15.6563V18H3.12504L12 11.3438L20.875 18H24V15.6563Z" fill="white"/>
<path fill-rule="evenodd" clip-rule="evenodd" d="M3.71042e-06 0L0 4.9472e-06V0.937512L10.75 9.00002L0 17.0625V18H1.25005L12 9.93753L22.7499 18H24V17.0625L13.25 9.00002L24 0.937508V0H22.75L12 8.06252L1.24999 0H3.71042e-06Z" fill="#DC251C"/>
<path fill-rule="evenodd" clip-rule="evenodd" d="M9 6V0H15V6H24V12H15V18H9V12H0V6H9Z" fill="white"/>
<path fill-rule="evenodd" clip-rule="evenodd" d="M10.5 7.5V0H13.5V7.5H24V10.5H13.5V18H10.5V10.5H0V7.5H10.5Z" fill="#DC251C"/>
</g>
<defs>
<clipPath id="clip0">
<path d="M0 2.4C0 1.07452 1.07452 0 2.4 0H21.6C22.9255 0 24 1.07452 24 2.4V15.6C24 16.9255 22.9255 18 21.6 18H2.4C1.07452 18 0 16.9255 0 15.6V2.4Z" fill="white"/>
</clipPath>
</defs>
</svg>
