<svg width="24" height="18" viewBox="0 0 24 18" fill="none" xmlns="http://www.w3.org/2000/svg">
<path d="M0 2.4C0 1.07452 1.07452 0 2.4 0H21.6C22.9255 0 24 1.07452 24 2.4V15.6C24 16.9255 22.9255 18 21.6 18H2.4C1.07452 18 0 16.9255 0 15.6V2.4Z" fill="#2B9F5A"/>
<path fill-rule="evenodd" clip-rule="evenodd" d="M12 2.25L2.25 9L12 15.75L21.75 9L12 2.25Z" fill="#FFD018"/>
<path d="M16.5 9C16.5 11.4853 14.4853 13.5 12 13.5C9.51472 13.5 7.5 11.4853 7.5 9C7.5 6.51472 9.51472 4.5 12 4.5C14.4853 4.5 16.5 6.51472 16.5 9Z" fill="#41479B"/>
<mask id="mask0" mask-type="alpha" maskUnits="userSpaceOnUse" x="7" y="4" width="10" height="10">
<path d="M16.5 9C16.5 11.4853 14.4853 13.5 12 13.5C9.51472 13.5 7.5 11.4853 7.5 9C7.5 6.51472 9.51472 4.5 12 4.5C14.4853 4.5 16.5 6.51472 16.5 9Z" fill="#41479B"/>
</mask>
<g mask="url(#mask0)">
<path fill-rule="evenodd" clip-rule="evenodd" d="M6.81155 8.05912L6.74998 7.5C6.68827 6.94089 6.68837 6.94088 6.68849 6.94087L6.69216 6.94047L6.70093 6.93954L6.73273 6.93629C6.76014 6.93356 6.79982 6.92975 6.85076 6.92527C6.95262 6.91629 7.09961 6.90457 7.28364 6.8932C7.65138 6.87047 8.16864 6.84903 8.77017 6.85391C9.96432 6.86361 11.5282 6.97706 12.9179 7.41178C14.298 7.84349 15.4725 8.51086 16.298 9.06528C16.712 9.34338 17.0417 9.59537 17.2694 9.77916C17.3832 9.87111 17.4718 9.94617 17.5328 9.99911C17.5634 10.0256 17.587 10.0465 17.6036 10.0613L17.6229 10.0788L17.6286 10.084L17.6304 10.0856C17.6305 10.0857 17.6314 10.0866 17.25 10.5C16.8685 10.9134 16.8686 10.9135 16.8687 10.9135L16.8661 10.9112L16.853 10.8994C16.8408 10.8884 16.8216 10.8714 16.7957 10.849C16.744 10.8041 16.6655 10.7376 16.5626 10.6545C16.3567 10.4882 16.0535 10.2563 15.6707 9.99919C14.9025 9.48321 13.827 8.8749 12.582 8.48548C11.3468 8.09908 9.91063 7.98821 8.76103 7.97888C8.19069 7.97424 7.70013 7.9946 7.35304 8.01606C7.17964 8.02677 7.04246 8.03774 6.94949 8.04593C6.90301 8.05002 6.86762 8.05342 6.84431 8.05574L6.81855 8.05837L6.81155 8.05912Z" fill="#F5F8FB"/>
</g>
<path d="M10.5 10.875C10.5 11.0821 10.3321 11.25 10.125 11.25C9.91789 11.25 9.75 11.0821 9.75 10.875C9.75 10.6679 9.91789 10.5 10.125 10.5C10.3321 10.5 10.5 10.6679 10.5 10.875Z" fill="#F5F8FB"/>
<path d="M12.75 11.625C12.75 11.8321 12.5821 12 12.375 12C12.1679 12 12 11.8321 12 11.625C12 11.4179 12.1679 11.25 12.375 11.25C12.5821 11.25 12.75 11.4179 12.75 11.625Z" fill="#F5F8FB"/>
<path d="M14.25 10.875C14.25 11.0821 14.0821 11.25 13.875 11.25C13.6679 11.25 13.5 11.0821 13.5 10.875C13.5 10.6679 13.6679 10.5 13.875 10.5C14.0821 10.5 14.25 10.6679 14.25 10.875Z" fill="#F5F8FB"/>
</svg>
