<svg width="24" height="18" viewBox="0 0 24 18" fill="none" xmlns="http://www.w3.org/2000/svg">
<g clip-path="url(#clip0)">
<rect width="24" height="18" fill="#F5F8FB"/>
<rect x="6" width="18" height="6" transform="rotate(90 6 0)" fill="#E31D1C"/>
<rect x="24" width="18" height="6" transform="rotate(90 24 0)" fill="#E31D1C"/>
<path d="M10.3636 6.03606L12 3.75L13.6364 6.03606V7.98317L16.5 8.30769L14.4545 10.9038L12.8182 11.5529L12.2297 13.4929C12.1608 13.72 11.8392 13.72 11.7703 13.4929L11.1818 11.5529L9.54545 10.9038L7.5 8.30769L10.3636 7.98317V6.03606Z" fill="#DC251C"/>
</g>
<defs>
<clipPath id="clip0">
<path d="M0 2.4C0 1.07452 1.07452 0 2.4 0H21.6C22.9255 0 24 1.07452 24 2.4V15.6C24 16.9255 22.9255 18 21.6 18H2.4C1.07452 18 0 16.9255 0 15.6V2.4Z" fill="white"/>
</clipPath>
</defs>
</svg>
