<svg viewBox="0 0 28 28" fill="none" xmlns="http://www.w3.org/2000/svg">
<rect width="20" height="15" transform="translate(4 7)" fill="#2B9F5A"/>
<path fillRule="evenodd" clipRule="evenodd" d="M14 8.875L5.875 14.5L14 20.125L22.125 14.5L14 8.875Z" fill="#FFD018"/>
<path d="M17.75 14.5C17.75 16.5711 16.0711 18.25 14 18.25C11.9289 18.25 10.25 16.5711 10.25 14.5C10.25 12.4289 11.9289 10.75 14 10.75C16.0711 10.75 17.75 12.4289 17.75 14.5Z" fill="#41479B"/>
<mask id="mask0" maskType="alpha" maskUnits="userSpaceOnUse" x="10" y="10" width="8" height="9">
<path d="M17.75 14.5C17.75 16.5711 16.0711 18.25 14 18.25C11.9289 18.25 10.25 16.5711 10.25 14.5C10.25 12.4289 11.9289 10.75 14 10.75C16.0711 10.75 17.75 12.4289 17.75 14.5Z" fill="#41479B"/>
</mask>
<g mask="url(#mask0)">
<path fillRule="evenodd" clipRule="evenodd" d="M9.67629 13.716L9.62498 13.25C9.57356 12.7841 9.57364 12.7841 9.57374 12.7841L9.5768 12.7837L9.58411 12.783L9.61061 12.7803C9.63345 12.778 9.66652 12.7748 9.70897 12.7711C9.79385 12.7636 9.91634 12.7538 10.0697 12.7444C10.3762 12.7254 10.8072 12.7075 11.3085 12.7116C12.3036 12.7197 13.6068 12.8142 14.7649 13.1765C15.915 13.5363 16.8937 14.0924 17.5816 14.5544C17.9267 14.7862 18.2014 14.9962 18.3911 15.1493C18.486 15.2259 18.5598 15.2885 18.6107 15.3326C18.6361 15.3547 18.6559 15.3721 18.6696 15.3845L18.6858 15.399L18.6905 15.4033L18.692 15.4047C18.6921 15.4048 18.6929 15.4055 18.375 15.75C18.0571 16.0945 18.0572 16.0946 18.0572 16.0946L18.0551 16.0927L18.0442 16.0828C18.034 16.0737 18.018 16.0595 17.9964 16.0408C17.9533 16.0034 17.888 15.948 17.8022 15.8787C17.6306 15.7402 17.3779 15.5469 17.0589 15.3327C16.4187 14.9027 15.5225 14.3958 14.485 14.0713C13.4557 13.7493 12.2589 13.6569 11.3009 13.6491C10.8256 13.6452 10.4168 13.6622 10.1275 13.6801C9.98303 13.689 9.86871 13.6981 9.79124 13.705C9.75251 13.7084 9.72302 13.7112 9.70359 13.7131L9.68212 13.7153L9.67629 13.716Z" fill="#F5F8FB"/>
</g>
<path d="M12.75 16.0625C12.75 16.2351 12.6101 16.375 12.4375 16.375C12.2649 16.375 12.125 16.2351 12.125 16.0625C12.125 15.8899 12.2649 15.75 12.4375 15.75C12.6101 15.75 12.75 15.8899 12.75 16.0625Z" fill="#F5F8FB"/>
<path d="M14.625 16.6875C14.625 16.8601 14.4851 17 14.3125 17C14.1399 17 14 16.8601 14 16.6875C14 16.5149 14.1399 16.375 14.3125 16.375C14.4851 16.375 14.625 16.5149 14.625 16.6875Z" fill="#F5F8FB"/>
<path d="M15.875 16.0625C15.875 16.2351 15.7351 16.375 15.5625 16.375C15.3899 16.375 15.25 16.2351 15.25 16.0625C15.25 15.8899 15.3899 15.75 15.5625 15.75C15.7351 15.75 15.875 15.8899 15.875 16.0625Z" fill="#F5F8FB"/>
</svg>
