<svg width="28" height="28" viewBox="0 0 28 28" fill="none" xmlns="http://www.w3.org/2000/svg">
<path fill-rule="evenodd" clip-rule="evenodd" d="M17.1875 12.0625C16.1174 12.0625 15.25 12.9299 15.25 14C15.25 15.0701 16.1174 15.9375 17.1875 15.9375C18.2576 15.9375 19.125 15.0701 19.125 14C19.125 12.9299 18.2576 12.0625 17.1875 12.0625ZM12.75 14C12.75 11.5492 14.7367 9.5625 17.1875 9.5625C19.6383 9.5625 21.625 11.5492 21.625 14C21.625 16.4508 19.6383 18.4375 17.1875 18.4375C14.7367 18.4375 12.75 16.4508 12.75 14Z" fill="url(#figma_paint0)"/>
<path fill-rule="evenodd" clip-rule="evenodd" d="M7.67471 4.4873C8.50691 3.6551 9.6356 3.18758 10.8125 3.18758H14C14.6904 3.18758 15.25 3.74723 15.25 4.43758V10.8125C15.25 11.5028 14.6904 12.0625 14 12.0625L10.8125 12.0626C9.63563 12.0626 8.50691 11.5951 7.67471 10.7629C6.84252 9.93068 6.375 8.80198 6.375 7.62508C6.375 6.44819 6.84252 5.31949 7.67471 4.4873ZM10.8125 5.68758C10.2986 5.68758 9.80583 5.89171 9.44248 6.25506C9.07913 6.61842 8.875 7.11123 8.875 7.62508C8.875 8.13894 9.07913 8.63175 9.44248 8.9951C9.80582 9.35845 10.2986 9.56258 10.8125 9.56258C10.8125 9.56258 10.8125 9.56258 10.8125 9.56258L12.75 9.56253V5.68758H10.8125Z" fill="url(#figma_paint1)"/>
<path fill-rule="evenodd" clip-rule="evenodd" d="M7.67471 10.8622C8.50691 10.03 9.63557 9.56258 10.8125 9.56258L14 9.5625C14.6904 9.5625 15.25 10.1221 15.25 10.8125V17.1874C15.25 17.8778 14.6904 18.4374 14 18.4374L10.8125 18.4375C9.63563 18.4375 8.50691 17.97 7.67471 17.1378C6.84252 16.3056 6.375 15.1769 6.375 14C6.375 12.8231 6.84252 11.6944 7.67471 10.8622ZM10.8125 12.0626C10.2987 12.0626 9.80583 12.2666 9.44248 12.63C9.07913 12.9933 8.875 13.4861 8.875 14C8.875 14.5139 9.07913 15.0067 9.44248 15.37C9.80583 15.7334 10.2986 15.9375 10.8125 15.9375C10.8125 15.9375 10.8125 15.9375 10.8125 15.9375L12.75 15.9374V12.0625L10.8125 12.0626Z" fill="url(#figma_paint2)"/>
<path fill-rule="evenodd" clip-rule="evenodd" d="M12.75 4.43758C12.75 3.74723 13.3096 3.18758 14 3.18758H17.1875C18.3644 3.18758 19.4931 3.6551 20.3253 4.4873C21.1575 5.31949 21.625 6.44819 21.625 7.62508C21.625 8.80198 21.1575 9.93068 20.3253 10.7629C19.4931 11.5951 18.3644 12.0625 17.1875 12.0625L14 12.0625C13.3097 12.0625 12.75 11.5028 12.75 10.8125V4.43758ZM15.25 5.68758V9.56253L17.1875 9.5625C17.1875 9.5625 17.1875 9.5625 17.1875 9.5625C17.7013 9.56249 18.1942 9.35845 18.5575 8.9951C18.9209 8.63175 19.125 8.13894 19.125 7.62508C19.125 7.11123 18.9209 6.61842 18.5575 6.25506C18.1942 5.89171 17.7014 5.68758 17.1875 5.68758H15.25Z" fill="url(#figma_paint3)"/>
<path fill-rule="evenodd" clip-rule="evenodd" d="M12.75 18.4374L10.8125 18.4375C10.4293 18.4375 10.0547 18.5511 9.73608 18.764C9.41746 18.9769 9.16913 19.2795 9.02248 19.6336C8.87584 19.9876 8.83747 20.3772 8.91223 20.753C8.98699 21.1288 9.17152 21.4741 9.44249 21.745C9.71346 22.016 10.0587 22.2005 10.4345 22.2753C10.8104 22.35 11.1999 22.3117 11.554 22.165C11.908 22.0184 12.2106 21.77 12.4235 21.4514C12.6364 21.1328 12.75 20.7582 12.75 20.375V18.4374ZM10.8125 15.9375L14 15.9374C14.3315 15.9374 14.6494 16.0691 14.8839 16.3035C15.1183 16.5379 15.25 16.8559 15.25 17.1874L15.25 20.3749C15.25 20.3749 15.25 20.3749 15.25 20.3749C15.25 21.2526 14.9898 22.1106 14.5022 22.8403C14.0146 23.57 13.3215 24.1388 12.5107 24.4747C11.6999 24.8106 10.8076 24.8985 9.94682 24.7272C9.08603 24.556 8.29534 24.1334 7.67474 23.5128C7.05413 22.8922 6.6315 22.1015 6.46027 21.2407C6.28904 20.3799 6.37692 19.4877 6.71278 18.6769C7.04864 17.866 7.61741 17.173 8.34715 16.6854C9.07689 16.1978 9.93482 15.9375 10.8125 15.9375C10.8125 15.9375 10.8125 15.9375 10.8125 15.9375Z" fill="url(#figma_paint4)"/>
<defs>
<linearGradient id="figma_paint0" x1="14" y1="3.18758" x2="14" y2="24.8125" gradientUnits="userSpaceOnUse">
<stop stop-color="#A855F7"/>
<stop offset="1" stop-color="#7E22CE"/>
</linearGradient>
<linearGradient id="figma_paint1" x1="14" y1="3.18758" x2="14" y2="24.8125" gradientUnits="userSpaceOnUse">
<stop stop-color="#A855F7"/>
<stop offset="1" stop-color="#7E22CE"/>
</linearGradient>
<linearGradient id="figma_paint2" x1="14" y1="3.18758" x2="14" y2="24.8125" gradientUnits="userSpaceOnUse">
<stop stop-color="#A855F7"/>
<stop offset="1" stop-color="#7E22CE"/>
</linearGradient>
<linearGradient id="figma_paint3" x1="14" y1="3.18758" x2="14" y2="24.8125" gradientUnits="userSpaceOnUse">
<stop stop-color="#A855F7"/>
<stop offset="1" stop-color="#7E22CE"/>
</linearGradient>
<linearGradient id="figma_paint4" x1="14" y1="3.18758" x2="14" y2="24.8125" gradientUnits="userSpaceOnUse">
<stop stop-color="#A855F7"/>
<stop offset="1" stop-color="#7E22CE"/>
</linearGradient>
</defs>
</svg>
