<svg width="28" height="28" viewBox="0 0 28 28" fill="none" xmlns="http://www.w3.org/2000/svg">
<mask id="mask0" mask-type="alpha" maskUnits="userSpaceOnUse" x="3" y="6" width="22" height="15">
<path d="M23.8086 11.9477C23.2337 9.62725 21.2737 7.76247 18.8151 7.197C16.3886 6.6389 13.9093 7.28628 12.1946 8.88961C11.5565 8.6009 10.871 8.44511 10.18 8.44213L10.1527 8.44208C8.26771 8.44208 6.51233 9.23688 5.3366 10.6227C4.16052 12.0089 3.73314 13.8156 4.16401 15.5795C4.67412 17.6679 6.46463 19.3554 8.68745 19.8404C10.4126 20.2167 12.1296 19.908 13.5079 19.0651C14.3725 19.5963 15.7163 20 17.0766 20C21.4879 20 24.8526 16.1626 23.8086 11.9477ZM17.0766 18.5553C16.1687 18.5553 15.2715 18.3394 14.482 17.9308C14.196 17.7829 13.9195 17.5501 13.612 17.1982L9.97811 13.0404C9.70854 12.732 9.22377 12.6871 8.89537 12.9402C8.56692 13.1933 8.51917 13.6485 8.78869 13.9569L12.3507 18.0324C11.3571 18.5371 10.1873 18.6843 9.03559 18.433C7.39546 18.0752 6.04033 16.7986 5.66362 15.2565C5.33814 13.9239 5.65756 12.563 6.54002 11.5228C7.42218 10.4832 8.73899 9.88682 10.1527 9.88682L10.1742 9.88687C10.8077 9.88956 11.4079 10.0865 11.9309 10.4049C12.8633 10.9738 12.9676 11.4165 16.4782 15.3974C16.7453 15.7077 17.2296 15.756 17.5602 15.5053C17.8906 15.2545 17.942 14.7997 17.675 14.4894C13.9266 10.1718 14.0744 10.2231 13.495 9.72294C14.8186 8.61569 16.6508 8.18655 18.449 8.60023C20.3498 9.03741 21.8652 10.4798 22.3099 12.275C23.1207 15.548 20.5367 18.5553 17.0766 18.5553Z" fill="#9CA3AF" stroke="#9CA3AF" stroke-width="1.2"/>
</mask>
<g mask="url(#mask0)">
<path d="M0 0H28V28H0V0Z" fill="url(#paint0_linear)"/>
</g>
<defs>
<linearGradient id="paint0_linear" x1="14" y1="0" x2="14" y2="28" gradientUnits="userSpaceOnUse">
<stop stop-color="#F97316"/>
<stop offset="1" stop-color="#B91C1C"/>
</linearGradient>
</defs>
</svg>
