<svg width="28" height="28" viewBox="0 0 28 28" fill="none" xmlns="http://www.w3.org/2000/svg">
<path fill-rule="evenodd" clip-rule="evenodd" d="M18.1747 6.17718C18.4107 5.52838 18.076 4.81118 17.4272 4.57526C16.7784 4.33933 16.0612 4.67403 15.8253 5.32282L9.82526 21.8228C9.58934 22.4716 9.92403 23.1888 10.5728 23.4247C11.2216 23.6607 11.9388 23.326 12.1747 22.6772L18.1747 6.17718ZM8.96028 9.44977C9.40223 9.98012 9.33058 10.7683 8.80023 11.2103L5.45256 14L8.80023 16.7897C9.33058 17.2317 9.40223 18.0199 8.96028 18.5502C8.51832 19.0806 7.73012 19.1522 7.19977 18.7103L2.69977 14.9603C2.41478 14.7228 2.25 14.371 2.25 14C2.25 13.629 2.41478 13.2772 2.69977 13.0397L7.19977 9.28972C7.73012 8.84777 8.51832 8.91942 8.96028 9.44977ZM19.0397 9.44977C19.4817 8.91942 20.2699 8.84777 20.8002 9.28972L25.3002 13.0397C25.5852 13.2772 25.75 13.629 25.75 14C25.75 14.371 25.5852 14.7228 25.3002 14.9603L20.8002 18.7103C20.2699 19.1522 19.4817 19.0806 19.0397 18.5502C18.5978 18.0199 18.6694 17.2317 19.1998 16.7897L22.5474 14L19.1998 11.2103C18.6694 10.7683 18.5978 9.98012 19.0397 9.44977Z" fill="url(#paint0_linear)"/>
<defs>
<linearGradient id="paint0_linear" x1="14" y1="4.49966" x2="14" y2="23.5003" gradientUnits="userSpaceOnUse">
<stop stop-color="#FBBF24"/>
<stop offset="1" stop-color="#F97316"/>
</linearGradient>
</defs>
</svg>
