<svg width="28" height="28" viewBox="0 0 28 28" fill="none" xmlns="http://www.w3.org/2000/svg">
<path d="M10.182 8.51704L10.197 8.51804C10.246 8.52704 10.28 8.56804 10.281 8.61704L10.28 8.61904L10.253 8.61804V8.61704C10.253 8.59804 10.248 8.58104 10.239 8.56604C10.238 8.54204 10.226 8.52304 10.196 8.51804L10.181 8.51704H10.153C8.14001 8.51704 6.26801 9.36804 5.01301 10.848C3.74701 12.339 3.28801 14.283 3.75101 16.18C4.29801 18.42 6.21301 20.236 8.59701 20.756C10.343 21.137 12.082 20.856 13.51 20.056C14.426 20.557 15.743 20.925 17.077 20.925C21.769 20.925 25.332 16.829 24.221 12.346C24.221 12.346 24.221 12.346 24.221 12.345C23.609 9.87504 21.528 7.88504 18.91 7.28304C16.438 6.71404 13.915 7.33204 12.111 8.89304C11.493 8.65004 10.84 8.52004 10.182 8.51704ZM17.077 18.63C16.237 18.63 15.407 18.431 14.677 18.053C14.431 17.926 14.197 17.721 13.932 17.419L10.298 13.261C9.88401 12.787 9.14001 12.715 8.63601 13.104C8.10901 13.51 8.03601 14.241 8.46901 14.737L11.647 18.373C10.861 18.651 9.98801 18.706 9.12601 18.518C7.64501 18.195 6.41701 17.048 6.07601 15.656C5.78401 14.457 6.07001 13.233 6.86401 12.298C7.66701 11.352 8.86601 10.812 10.153 10.812H10.174C10.727 10.814 11.252 10.989 11.71 11.268C12.264 11.606 12.502 11.905 13.432 13.009C14.015 13.701 14.851 14.695 16.159 16.178C16.566 16.651 17.309 16.729 17.817 16.344C18.348 15.941 18.426 15.21 17.997 14.712L17.996 14.711C16.482 12.967 15.604 11.936 15.057 11.294C14.568 10.72 14.335 10.448 14.153 10.258C15.335 9.45304 16.858 9.17004 18.354 9.51404C20.096 9.91504 21.49 11.232 21.897 12.877C22.642 15.882 20.254 18.63 17.077 18.63ZM10.281 8.61904V8.61704V8.61904ZM10.09 8.61704C10.085 8.61304 10.081 8.61304 10.081 8.61704H10.082H10.09Z" fill="url(#adobe_paint0)"/>
<defs>
<linearGradient id="adobe_paint0" x1="14.0001" y1="7.07498" x2="14.0001" y2="20.925" gradientUnits="userSpaceOnUse">
<stop stop-color="#F97316"/>
<stop offset="1" stop-color="#B91C1C"/>
</linearGradient>
</defs>
</svg>
